<svg width="124" height="19" viewBox="0 0 124 19" fill="none" xmlns="http://www.w3.org/2000/svg">
<path d="M6.15909 18.2727C4.93182 18.2727 3.875 17.983 2.98864 17.4034C2.10227 16.8239 1.42045 16.0256 0.943182 15.0085C0.465909 13.9915 0.227273 12.8295 0.227273 11.5227C0.227273 10.1932 0.471591 9.01989 0.960227 8.00284C1.45455 6.98011 2.14205 6.18182 3.02273 5.60795C3.90909 5.02841 4.94318 4.73864 6.125 4.73864C7.04545 4.73864 7.875 4.90909 8.61364 5.25C9.35227 5.59091 9.95739 6.06818 10.429 6.68182C10.9006 7.29545 11.1932 8.01136 11.3068 8.82955H9.29545C9.14205 8.23295 8.80114 7.70455 8.27273 7.24432C7.75 6.77841 7.04545 6.54545 6.15909 6.54545C5.375 6.54545 4.6875 6.75 4.09659 7.15909C3.51136 7.5625 3.05398 8.13352 2.72443 8.87216C2.40057 9.60511 2.23864 10.4659 2.23864 11.4545C2.23864 12.4659 2.39773 13.3466 2.71591 14.0966C3.03977 14.8466 3.49432 15.429 4.07955 15.8438C4.67045 16.2585 5.36364 16.4659 6.15909 16.4659C6.68182 16.4659 7.15625 16.375 7.58239 16.1932C8.00852 16.0114 8.36932 15.75 8.66477 15.4091C8.96023 15.0682 9.17045 14.6591 9.29545 14.1818H11.3068C11.1932 14.9545 10.9119 15.6506 10.4631 16.2699C10.0199 16.8835 9.43182 17.3722 8.69886 17.7358C7.97159 18.0938 7.125 18.2727 6.15909 18.2727ZM16.2585 0.545454V18H14.2472V0.545454H16.2585ZM25.4311 18.2727C24.1697 18.2727 23.0817 17.9943 22.1669 17.4375C21.2578 16.875 20.5561 16.0909 20.0618 15.0852C19.5732 14.0739 19.3288 12.8977 19.3288 11.5568C19.3288 10.2159 19.5732 9.03409 20.0618 8.01136C20.5561 6.98295 21.2436 6.18182 22.1243 5.60795C23.0107 5.02841 24.0447 4.73864 25.2266 4.73864C25.9084 4.73864 26.5817 4.85227 27.2464 5.07954C27.9112 5.30682 28.5163 5.67614 29.0618 6.1875C29.6072 6.69318 30.0419 7.36364 30.3658 8.19886C30.6896 9.03409 30.8516 10.0625 30.8516 11.2841V12.1364H20.7607V10.3977H28.8061C28.8061 9.65909 28.6584 9 28.3629 8.42045C28.0732 7.84091 27.6584 7.38352 27.1186 7.0483C26.5845 6.71307 25.9538 6.54545 25.2266 6.54545C24.4254 6.54545 23.7322 6.74432 23.147 7.14205C22.5675 7.53409 22.1214 8.04545 21.8089 8.67614C21.4964 9.30682 21.3402 9.98295 21.3402 10.7045V11.8636C21.3402 12.8523 21.5107 13.6903 21.8516 14.3778C22.1982 15.0597 22.6783 15.5795 23.2919 15.9375C23.9055 16.2898 24.6186 16.4659 25.4311 16.4659C25.9595 16.4659 26.4368 16.392 26.8629 16.2443C27.2947 16.0909 27.6669 15.8636 27.9794 15.5625C28.2919 15.2557 28.5334 14.875 28.7038 14.4205L30.647 14.9659C30.4425 15.625 30.0987 16.2045 29.6158 16.7045C29.1328 17.1989 28.5362 17.5852 27.826 17.8636C27.1158 18.1364 26.3175 18.2727 25.4311 18.2727ZM37.7635 18.3068C36.9339 18.3068 36.1811 18.1506 35.505 17.8381C34.8288 17.5199 34.2919 17.0625 33.8942 16.4659C33.4964 15.8636 33.2976 15.1364 33.2976 14.2841C33.2976 13.5341 33.4453 12.9261 33.7408 12.4602C34.0362 11.9886 34.4311 11.6193 34.9254 11.3523C35.4197 11.0852 35.9652 10.8864 36.5618 10.7557C37.1641 10.6193 37.7692 10.5114 38.3771 10.4318C39.1726 10.3295 39.8175 10.2528 40.3118 10.2017C40.8118 10.1449 41.1754 10.0511 41.4027 9.92045C41.6357 9.78977 41.7521 9.5625 41.7521 9.23864V9.17045C41.7521 8.32955 41.522 7.67614 41.0618 7.21023C40.6072 6.74432 39.9169 6.51136 38.9908 6.51136C38.0305 6.51136 37.2777 6.72159 36.7322 7.14205C36.1868 7.5625 35.8033 8.01136 35.5817 8.48864L33.6726 7.80682C34.0135 7.01136 34.468 6.39205 35.0362 5.94886C35.6101 5.5 36.2351 5.1875 36.9112 5.01136C37.593 4.82955 38.2635 4.73864 38.9226 4.73864C39.343 4.73864 39.826 4.78977 40.3714 4.89204C40.9226 4.98864 41.4538 5.19034 41.9652 5.49716C42.4822 5.80398 42.9112 6.26705 43.2521 6.88636C43.593 7.50568 43.7635 8.33523 43.7635 9.375V18H41.7521V16.2273H41.6499C41.5135 16.5114 41.2862 16.8153 40.968 17.1392C40.6499 17.4631 40.2266 17.7386 39.6982 17.9659C39.1697 18.1932 38.5249 18.3068 37.7635 18.3068ZM38.0703 16.5C38.8658 16.5 39.5362 16.3438 40.0817 16.0312C40.6328 15.7188 41.0476 15.3153 41.326 14.821C41.6101 14.3267 41.7521 13.8068 41.7521 13.2614V11.4205C41.6669 11.5227 41.4794 11.6165 41.1896 11.7017C40.9055 11.7812 40.576 11.8523 40.201 11.9148C39.8317 11.9716 39.4709 12.0227 39.1186 12.0682C38.772 12.108 38.4908 12.142 38.2749 12.1705C37.7521 12.2386 37.2635 12.3494 36.8089 12.5028C36.3601 12.6506 35.9964 12.875 35.718 13.1761C35.4453 13.4716 35.3089 13.875 35.3089 14.3864C35.3089 15.0852 35.5675 15.6136 36.0845 15.9716C36.6072 16.3239 37.2692 16.5 38.0703 16.5ZM49.446 10.125V18H47.4347V4.90909H49.3778V6.95455H49.5483C49.8551 6.28977 50.321 5.75568 50.946 5.35227C51.571 4.94318 52.3778 4.73864 53.3665 4.73864C54.2528 4.73864 55.0284 4.92045 55.6932 5.28409C56.358 5.64205 56.875 6.1875 57.2443 6.92045C57.6136 7.64773 57.7983 8.56818 57.7983 9.68182V18H55.7869V9.81818C55.7869 8.78977 55.5199 7.98864 54.9858 7.41477C54.4517 6.83523 53.7188 6.54545 52.7869 6.54545C52.1449 6.54545 51.571 6.68466 51.0653 6.96307C50.5653 7.24148 50.1705 7.64773 49.8807 8.18182C49.5909 8.71591 49.446 9.36364 49.446 10.125ZM67.4737 18H60.7578V0.545454H67.4055C69.201 0.545454 70.7521 0.894886 72.0589 1.59375C73.3714 2.28693 74.3828 3.28693 75.093 4.59375C75.8089 5.89489 76.1669 7.45455 76.1669 9.27273C76.1669 11.0909 75.8118 12.6534 75.1016 13.9602C74.3913 15.2614 73.3857 16.2614 72.0845 16.9602C70.7834 17.6534 69.2464 18 67.4737 18ZM65.4964 13.9773H67.3033C68.1669 13.9773 68.9027 13.8381 69.5107 13.5597C70.1243 13.2812 70.5902 12.8011 70.9084 12.1193C71.2322 11.4375 71.3942 10.4886 71.3942 9.27273C71.3942 8.05682 71.2294 7.10795 70.8999 6.42614C70.576 5.74432 70.0987 5.2642 69.468 4.98579C68.843 4.70739 68.076 4.56818 67.1669 4.56818H65.4964V13.9773ZM75.9594 18V0.545454H83.4935C84.7889 0.545454 85.9224 0.78125 86.894 1.25284C87.8656 1.72443 88.6213 2.40341 89.1611 3.28977C89.7009 4.17614 89.9707 5.23864 89.9707 6.47727C89.9707 7.72727 89.6923 8.78125 89.1355 9.6392C88.5844 10.4972 87.8088 11.1449 86.8088 11.5824C85.8145 12.0199 84.6526 12.2386 83.323 12.2386H78.823V8.55682H82.3685C82.9253 8.55682 83.3997 8.48864 83.7918 8.35227C84.1895 8.21023 84.4935 7.9858 84.7037 7.67898C84.9196 7.37216 85.0276 6.97159 85.0276 6.47727C85.0276 5.97727 84.9196 5.57102 84.7037 5.25852C84.4935 4.94034 84.1895 4.70739 83.7918 4.55966C83.3997 4.40625 82.9253 4.32954 82.3685 4.32954H80.698V18H75.9594ZM86.1866 9.98864L90.5503 18H85.4026L81.1412 9.98864H86.1866ZM94.3293 0.545454V18H89.5906V0.545454H94.3293ZM98.9477 0.545454L102.527 12.8523H102.664L106.243 0.545454H111.595L105.834 18H99.3568L93.5955 0.545454H98.9477ZM110.877 18V0.545454H123.456V4.36364H115.615V7.36364H122.808V11.1818H115.615V14.1818H123.422V18H110.877Z" fill="#F5F5F7"/>
</svg>
